<svg id="Layer_1" enable-background="new 0 0 512 512" height="512" viewBox="0 0 512 512" width="512" xmlns="http://www.w3.org/2000/svg"><path d="m489.5 440.552v-425.552c0-8.284-6.716-15-15-15s-15 6.716-15 15v43.504h-52.64v-1.498c0-17.92-14.579-32.5-32.5-32.5s-32.5 14.58-32.5 32.5v1.498h-53.36v-1.498c0-17.92-14.579-32.5-32.5-32.5-17.92 0-32.5 14.58-32.5 32.5v1.498h-170.15v-43.504c0-8.284-6.716-15-15-15s-15 6.716-15 15v425.176c-13.713 5.851-23.35 19.468-23.35 35.295v29.029c0 4.142 3.358 7.5 7.5 7.5h497c4.143 0 7.5-3.358 7.5-7.5v-29.029c0-15.498-9.24-28.877-22.5-34.919zm-333.5-179.552c17.92 0 32.5-14.58 32.5-32.5v-1.498h153.36v1.498c0 17.92 14.579 32.5 32.5 32.5s32.5-14.58 32.5-32.5v-1.498h52.64v110h-52.64v-1.498c0-17.92-14.579-32.5-32.5-32.5s-32.5 14.58-32.5 32.5v1.498h-53.36v-1.498c0-17.92-14.579-32.5-32.5-32.5-17.92 0-32.5 14.58-32.5 32.5v1.498h-170.15v-110h70.15v1.498c0 17.92 14.58 32.5 32.5 32.5zm-102.65 106.001h170.15v1.498c0 17.92 14.58 32.5 32.5 32.5 17.921 0 32.5-14.58 32.5-32.5v-1.498h53.36v1.498c0 17.92 14.579 32.5 32.5 32.5s32.5-14.58 32.5-32.5v-1.498h52.64v70.12h-406.15zm170.15-278.497v1.498c0 17.92 14.58 32.5 32.5 32.5 17.921 0 32.5-14.58 32.5-32.5v-1.498h53.36v1.498c0 17.92 14.579 32.5 32.5 32.5s32.5-14.58 32.5-32.5v-1.498h52.64v108.498h-52.64v-1.498c0-17.92-14.579-32.5-32.5-32.5s-32.5 14.58-32.5 32.5v1.498h-153.36v-1.498c0-17.92-14.58-32.5-32.5-32.5s-32.5 14.58-32.5 32.5v1.498h-70.15v-108.498z"/></svg>